<?xml version="1.0" encoding="UTF-8" standalone="no"?>
<!-- Created with Sodipodi ("http://www.sodipodi.com/") -->
<svg
   xmlns:dc="http://purl.org/dc/elements/1.1/"
   xmlns:cc="http://web.resource.org/cc/"
   xmlns:rdf="http://www.w3.org/1999/02/22-rdf-syntax-ns#"
   xmlns:svg="http://www.w3.org/2000/svg"
   xmlns="http://www.w3.org/2000/svg"
   xmlns:sodipodi="http://sodipodi.sourceforge.net/DTD/sodipodi-0.dtd"
   xmlns:inkscape="http://www.inkscape.org/namespaces/inkscape"
   version="1.0"
   x="0"
   y="0"
   width="539.09357"
   height="441.5509"
   id="svg602"
   xml:space="preserve"
   sodipodi:version="0.32"
   sodipodi:docname="emacs.svg"
   sodipodi:docbase="/home/salvi/other/logo"
   inkscape:version="0.45.1"
   inkscape:output_extension="org.inkscape.output.svg.inkscape"><metadata
     id="metadata5739"><rdf:RDF><cc:Work
         rdf:about=""><dc:format>image/svg+xml</dc:format><dc:type
           rdf:resource="http://purl.org/dc/dcmitype/StillImage" /></cc:Work></rdf:RDF></metadata><sodipodi:namedview
     id="base"
     inkscape:zoom="0.38674898"
     inkscape:cx="372.04724"
     inkscape:cy="215.90232"
     inkscape:window-width="816"
     inkscape:window-height="625"
     inkscape:window-x="0"
     inkscape:window-y="0"
     inkscape:current-layer="svg602" /><defs
     id="defs604" /><path
     d="M 412.70566,74.934793 C 410.56826,74.353093 405.21126,66.782093 418.51366,40.483993 C 423.80966,30.014293 430.21386,16.644493 444.39756,10.925893 C 454.37456,6.9032925 470.20016,7.3783925 479.03146,21.733893 C 489.36686,38.534093 482.48896,88.302693 472.52256,121.55089 C 460.63926,161.19399 446.58186,198.51479 437.52256,240.30089 C 429.91516,275.38979 425.85586,302.38419 420.02256,332.17589 C 408.35586,339.25919 410.08276,334.32829 418.77256,285.30089 C 426.95776,239.11989 454.48706,164.69639 465.02256,102.80089 C 467.82046,86.363093 466.48826,64.733993 457.67426,50.970393 C 451.93016,42.000593 440.69786,40.858593 431.08956,43.943593 C 422.41216,46.729793 421.14626,55.419293 421.72006,62.308593 C 421.86116,69.676793 419.12906,76.682693 412.70566,74.934793 z "
     style="font-size:12px;fill-rule:evenodd;stroke-width:1"
     id="path622" /><path
     d="M 341.89756,80.300893 C 339.39756,81.134293 336.27256,99.467493 325.02256,112.80089 C 327.73086,125.92589 336.12426,128.91889 344.39756,127.80089 C 359.24926,125.79389 366.13816,117.53459 375.64756,107.17589 C 388.89706,92.743093 403.56426,58.842493 400.64756,57.175893 C 398.56426,59.050893 376.56776,92.465293 366.71456,93.684793 C 355.55136,95.066393 346.27256,95.717493 341.89756,80.300893 z "
     style="font-size:12px;fill-rule:evenodd;stroke-width:1"
     id="path623" /><path
     d="M 190.64756,137.80089 C 188.56426,130.30089 198.98086,115.30089 210.64756,107.80089 C 221.27256,113.84249 233.99886,125.50129 235.02256,154.05089 C 235.87386,177.79299 233.14756,210.92589 216.27256,217.80089 C 215.02256,200.09259 219.88696,186.17999 212.52256,164.67589 C 209.47026,155.76329 202.31426,144.25929 190.64756,137.80089 z "
     style="font-size:12px;fill-rule:evenodd;stroke-width:1"
     id="path624" /><path
     d="M 142.52256,73.425893 C 136.89756,72.175893 98.147555,127.80089 80.647555,157.80089 C 72.522555,175.09259 64.197955,194.55769 73.147555,202.17589 C 89.406255,216.01609 105.70206,199.31679 122.52256,188.42589 C 134.66036,180.56689 155.89456,161.31959 167.91316,152.33219 C 175.26916,147.02659 177.83506,136.34259 182.52256,124.05089 C 182.93926,122.38429 140.64066,164.36759 116.27256,173.42589 C 100.84906,179.15929 88.877955,168.34149 90.281455,162.25169 C 93.410155,142.43769 146.76506,76.601393 142.52256,73.425893 z "
     style="font-size:12px;fill-rule:evenodd;stroke-width:1"
     id="path625" /><path
     d="M 31.272555,38.425893 C 28.980855,43.425893 22.939255,60.925893 18.772555,72.175893 C 22.522555,83.842493 28.727855,95.514393 37.522555,95.925893 C 64.352855,97.181093 97.015555,46.346993 114.39756,39.675893 C 124.33866,35.860593 149.60586,74.675893 153.14756,73.425893 C 161.27256,71.342493 159.88906,59.989293 162.52256,57.800893 C 174.68076,47.697493 182.78926,44.419593 195.02256,48.425893 C 213.80576,54.577193 262.99236,116.44049 281.71456,115.74289 C 299.57696,115.07719 304.93396,107.68929 311.89756,99.050893 C 321.39226,87.272693 331.27256,61.550893 328.77256,57.800893 C 321.06426,69.675893 312.10586,78.425893 301.89756,82.175893 C 277.73086,87.384293 265.43926,66.342493 251.89756,50.925893 C 218.56426,10.509293 195.14026,12.154493 191.89756,12.800893 C 186.14516,13.947593 174.39756,22.175893 164.39756,33.425893 C 153.77256,21.550893 145.90216,11.131093 130.64756,9.0508925 C 109.23546,6.1310925 98.384055,33.497193 84.397555,46.550893 C 71.875155,58.238293 61.171355,63.083093 51.897555,61.550893 C 37.213055,59.124693 35.647555,38.634293 31.272555,38.425893 z "
     style="font-size:12px;fill-rule:evenodd;stroke-width:1"
     id="path626" /><path
     d="M 364.39756,319.67589 C 347.93926,324.46759 329.58366,342.19659 324.39756,360.30089 C 318.12536,382.19659 325.59876,388.96919 333.77256,389.05089 C 346.43206,389.17749 355.13886,386.46989 366.27256,379.67589 C 376.46996,374.07829 381.27256,369.88419 389.39756,367.80089 C 388.14756,375.30089 387.76226,384.12279 394.39756,386.55089 C 408.58536,391.29579 421.18836,385.95959 433.77256,380.92589 C 443.06336,377.20959 461.89756,370.30089 459.39756,367.80089 C 457.93926,365.30089 428.39536,375.90179 420.02256,362.17589 C 415.68696,355.06849 425.33616,340.94389 436.27256,331.55089 C 454.01636,315.68619 477.73086,312.38419 473.77256,307.80089 C 466.27256,305.71759 445.96436,314.32199 431.27256,325.30089 C 412.88266,338.26099 405.64756,348.84259 393.14756,359.05089 C 380.43926,368.63419 372.73086,368.21759 362.52256,369.05089 C 349.39756,366.55089 350.16476,359.63679 351.89756,348.42589 C 353.38516,339.42579 365.64756,323.63419 364.39756,319.67589 z "
     style="font-size:12px;fill-rule:evenodd;stroke-width:1"
     id="path619" /><path
     d="M 450.64756,383.42589 C 457.10586,379.46759 465.43926,374.25919 470.02256,374.05089 C 479.39756,380.92589 485.06236,379.55549 488.77256,379.05089 C 511.10406,376.01379 514.45366,368.44939 516.27256,360.92589 C 519.03706,349.49099 515.97816,342.24189 504.39756,340.92589 C 488.47816,339.11689 459.18926,343.63419 456.27256,338.42589 C 457.52256,332.17589 492.19696,316.05849 496.89756,314.67589 C 506.36376,311.89169 524.60586,305.71759 525.02256,309.05089 C 521.89756,313.00919 503.14756,312.59259 485.64756,328.42589 C 482.10586,340.30089 512.63306,332.74019 528.77256,336.55089 C 542.63306,339.82349 539.62776,355.30099 536.27256,361.55089 C 529.00276,375.09259 515.11696,379.14509 506.89756,380.30089 C 488.45026,382.89509 470.64756,385.50919 450.64756,383.42589 z "
     style="font-size:12px;fill-rule:evenodd;stroke-width:1"
     id="path620" /><path
     d="M 154.08506,237.80089 C 168.14756,232.80089 179.40596,224.34099 191.58506,213.11339 C 199.40596,205.90349 203.29296,196.37699 197.52256,191.55089 C 191.83456,186.79369 156.63276,198.93289 144.39756,205.30089 C 121.00776,217.47459 97.614355,234.35029 80.022555,250.92589 C 68.760155,261.53779 59.245655,269.58559 52.835055,281.86339 C 46.953955,293.12719 48.594955,296.05749 50.647555,299.05089 C 53.594955,303.34919 60.855855,305.30089 65.960055,308.42589 C 53.876755,320.92589 44.808555,327.92379 29.710055,345.92589 C 17.725265,360.21549 5.6475551,374.25919 3.4600551,380.92589 C -2.8941249,397.59259 5.8392851,405.45319 12.210055,407.48839 C 22.122255,410.85459 32.978955,410.84969 43.147555,404.67589 C 65.062255,391.37049 69.468355,386.36079 80.647555,377.17589 C 91.655855,368.13159 103.14756,359.05089 114.39756,350.92589 C 118.98086,346.75919 123.56426,342.59259 128.14756,338.42589 C 123.14756,349.67589 119.72776,359.99829 112.52256,372.80089 C 107.12356,382.39409 91.376755,402.90509 98.147555,404.05089 C 99.918355,404.46759 119.91556,385.01269 130.64756,376.55089 C 141.58216,367.92939 157.31426,355.92589 163.77256,350.30089 C 171.68926,345.50919 175.85586,341.65509 181.27256,341.23839 C 178.77256,350.82169 175.33506,363.53009 170.64756,369.67589 C 165.23086,381.55089 156.06426,389.36339 158.14756,392.17589 C 160.96006,398.63419 183.46006,375.09259 192.21006,364.98839 C 203.14756,353.84259 210.96006,342.38419 224.39756,334.67589 C 230.85586,339.25919 207.26516,382.69269 219.39756,389.67589 C 225.18176,393.00519 234.68716,392.77569 241.89756,387.17589 C 253.78636,378.42799 263.56426,371.34259 273.14756,363.42589 C 276.06426,361.34259 281.16836,356.13419 281.89756,357.17589 C 283.56426,358.73839 269.25636,368.56789 264.39756,383.42589 C 262.06886,390.54699 270.12876,394.53009 275.64756,392.80089 C 285.75376,389.63429 308.66836,372.17589 305.64756,369.67589 C 304.18926,368.32169 295.85586,372.90509 292.83506,371.55089 C 292.41836,362.90509 304.58206,349.38129 314.39756,339.98839 C 326.35286,328.54799 338.14756,324.36339 357.83506,308.11339 C 355.96006,303.53009 319.71006,322.07169 303.77256,335.61339 C 291.68926,345.40509 283.66836,350.82169 276.89756,355.92589 C 260.75176,367.90509 254.91836,369.57169 248.14756,367.17589 C 240.43926,366.23839 242.15896,358.39689 245.64756,346.23839 C 249.24236,333.70939 260.54336,318.42589 252.52256,314.36339 C 248.25176,312.38419 237.10586,315.40509 233.77256,318.11339 C 222.93926,323.94669 213.04336,332.28009 206.27256,337.48839 C 205.23086,335.82169 207.62676,319.15509 205.02256,309.98839 C 202.62676,306.55089 196.16836,308.73839 182.83506,320.30089 C 169.91836,330.71759 157.31426,339.57169 134.39756,363.42589 C 126.37676,363.32169 161.48086,318.53009 158.14756,313.42589 C 155.85596,308.32179 144.06246,315.79829 125.73086,329.17199 C 107.39916,342.54559 61.957955,376.93139 54.085055,380.30089 C 45.693855,384.55829 38.281755,385.28819 33.772555,382.48839 C 27.901755,378.21809 28.535655,373.43199 29.734455,367.61429 C 30.933255,361.79669 33.946755,357.44739 36.585055,354.05089 C 42.925255,345.26349 65.465455,322.76239 75.335055,315.92589 C 85.928455,309.25879 101.39886,301.52679 114.71006,292.48839 C 122.99956,287.48479 145.12676,267.17589 141.89756,265.30089 C 140.96006,262.59259 116.58506,276.44669 107.83506,278.73839 C 99.814255,281.34259 81.059155,286.23999 77.210055,272.80089 C 74.428755,263.71509 101.37676,243.53009 117.52256,232.17589 C 140.33506,217.38419 166.27256,206.34259 179.39756,207.17589 C 184.29336,207.48839 175.43926,218.42589 171.27256,221.55089 C 167.73086,224.88429 155.63416,232.77129 153.06946,235.14469 C 151.63716,236.75919 153.25176,237.27999 154.08506,237.80089 z "
     style="font-size:12px;fill-rule:evenodd;stroke-width:1"
     id="path621" /><path
     d="M 421.45566,66.184793 C 419.31826,65.603093 413.96126,58.032093 427.26366,31.733993 C 432.55966,21.264293 438.96386,7.8944925 453.14756,2.1758925 C 463.12456,-1.8467075 478.95016,-1.3716075 487.78146,12.983893 C 498.11686,29.784093 491.23896,79.552693 481.27256,112.80089 C 469.38926,152.44399 455.33186,189.76479 446.27256,231.55089 C 438.66516,266.63979 434.60586,293.63419 428.77256,323.42589 C 417.10586,330.50919 418.83276,325.57829 427.52256,276.55089 C 435.70776,230.36989 463.23706,155.94639 473.77256,94.050893 C 476.57046,77.613093 475.23826,55.983993 466.42426,42.220393 C 460.68016,33.250593 449.44786,32.108593 439.83956,35.193593 C 431.16216,37.979793 429.89626,46.669293 430.47006,53.558593 C 430.61116,60.926793 427.87906,67.932693 421.45566,66.184793 z "
     style="font-size:12px;fill:#b51a16;fill-rule:evenodd;stroke-width:1"
     id="path613" /><path
     d="M 363.14756,310.92589 C 346.68926,315.71759 328.33366,333.44659 323.14756,351.55089 C 316.87536,373.44659 324.34876,380.21919 332.52256,380.30089 C 345.18206,380.42749 353.88886,377.71989 365.02256,370.92589 C 375.21996,365.32829 380.02256,361.13419 388.14756,359.05089 C 386.89756,366.55089 386.51226,375.37279 393.14756,377.80089 C 407.33536,382.54579 419.93836,377.20959 432.52256,372.17589 C 441.81336,368.45959 460.64756,361.55089 458.14756,359.05089 C 456.68926,356.55089 427.14536,367.15179 418.77256,353.42589 C 414.43696,346.31849 424.08616,332.19389 435.02256,322.80089 C 452.76636,306.93619 476.48086,303.63419 472.52256,299.05089 C 465.02256,296.96759 444.71436,305.57199 430.02256,316.55089 C 411.63266,329.51099 404.39756,340.09259 391.89756,350.30089 C 379.18926,359.88419 371.48086,359.46759 361.27256,360.30089 C 348.14756,357.80089 348.91476,350.88679 350.64756,339.67589 C 352.13516,330.67579 364.39756,314.88419 363.14756,310.92589 z "
     style="font-size:12px;fill:#1951c3;fill-rule:evenodd;stroke-width:1"
     id="path609" /><path
     d="M 449.39756,374.67589 C 455.85586,370.71759 464.18926,365.50919 468.77256,365.30089 C 478.14756,372.17589 483.81236,370.80549 487.52256,370.30089 C 509.85406,367.26379 513.20366,359.69939 515.02256,352.17589 C 517.78706,340.74099 514.72816,333.49189 503.14756,332.17589 C 487.22816,330.36689 457.93926,334.88419 455.02256,329.67589 C 456.27256,323.42589 490.94696,307.30849 495.64756,305.92589 C 505.11376,303.14169 523.35586,296.96759 523.77256,300.30089 C 520.64756,304.25919 501.89756,303.84259 484.39756,319.67589 C 480.85586,331.55089 511.38306,323.99019 527.52256,327.80089 C 541.38306,331.07349 538.37776,346.55099 535.02256,352.80089 C 527.75276,366.34259 513.86696,370.39509 505.64756,371.55089 C 487.20026,374.14509 469.39756,376.75919 449.39756,374.67589 z "
     style="font-size:12px;fill:#1951c3;fill-rule:evenodd;stroke-width:1"
     id="path610" /><path
     d="M 350.64756,71.550893 C 348.14756,72.384293 345.02256,90.717493 333.77256,104.05089 C 336.48086,117.17589 344.87426,120.16889 353.14756,119.05089 C 367.99926,117.04389 374.88816,108.78459 384.39756,98.425893 C 397.64706,83.993093 412.31426,50.092493 409.39756,48.425893 C 407.31426,50.300893 385.31776,83.715293 375.46456,84.934793 C 364.30136,86.316393 355.02256,86.967493 350.64756,71.550893 z "
     style="font-size:12px;fill:#b51a16;fill-rule:evenodd;stroke-width:1"
     id="path614" /><path
     d="M 199.39756,129.05089 C 197.31426,121.55089 207.73086,106.55089 219.39756,99.050893 C 230.02256,105.09249 242.74886,116.75129 243.77256,145.30089 C 244.62386,169.04299 241.89756,202.17589 225.02256,209.05089 C 223.77256,191.34259 228.63696,177.42999 221.27256,155.92589 C 218.22026,147.01329 211.06426,135.50929 199.39756,129.05089 z "
     style="font-size:12px;fill:#b51a16;fill-rule:evenodd;stroke-width:1"
     id="path615" /><path
     d="M 151.27256,64.675893 C 145.64756,63.425893 106.89756,119.05089 89.397555,149.05089 C 81.272555,166.34259 72.947955,185.80769 81.897555,193.42589 C 98.156255,207.26609 114.45206,190.56679 131.27256,179.67589 C 143.41036,171.81689 164.64456,152.56959 176.66316,143.58219 C 184.01916,138.27659 186.58506,127.59259 191.27256,115.30089 C 191.68926,113.63429 149.39066,155.61759 125.02256,164.67589 C 109.59906,170.40929 97.627955,159.59149 99.031455,153.50169 C 102.16016,133.68769 155.51506,67.851393 151.27256,64.675893 z "
     style="font-size:12px;fill:#b51a16;fill-rule:evenodd;stroke-width:1"
     id="path617" /><path
     d="M 40.022555,29.675893 C 37.730855,34.675893 31.689255,52.175893 27.522555,63.425893 C 31.272555,75.092493 37.477855,86.764393 46.272555,87.175893 C 73.102855,88.431093 105.76556,37.596993 123.14756,30.925893 C 133.08866,27.110593 158.35586,65.925893 161.89756,64.675893 C 170.02256,62.592493 168.63906,51.239293 171.27256,49.050893 C 183.43076,38.947493 191.53926,35.669593 203.77256,39.675893 C 222.55576,45.827193 271.74236,107.69049 290.46456,106.99289 C 308.32696,106.32719 313.68396,98.939293 320.64756,90.300893 C 330.14226,78.522693 340.02256,52.800893 337.52256,49.050893 C 329.81426,60.925893 320.85586,69.675893 310.64756,73.425893 C 286.48086,78.634293 274.18926,57.592493 260.64756,42.175893 C 227.31426,1.7592925 203.89026,3.4044925 200.64756,4.0508925 C 194.89516,5.1975925 183.14756,13.425893 173.14756,24.675893 C 162.52256,12.800893 154.65216,2.3810925 139.39756,0.30089254 C 117.98546,-2.6189075 107.13406,24.747193 93.147555,37.800893 C 80.625155,49.488293 69.921355,54.333093 60.647555,52.800893 C 45.963055,50.374693 44.397555,29.884293 40.022555,29.675893 z "
     style="font-size:12px;fill:#b51a16;fill-rule:evenodd;stroke-width:1"
     id="path618" /><path
     d="M 152.83506,229.05089 C 166.89756,224.05089 178.15596,215.59099 190.33506,204.36339 C 198.15596,197.15349 202.04296,187.62699 196.27256,182.80089 C 190.58456,178.04369 155.38276,190.18289 143.14756,196.55089 C 119.75776,208.72459 96.364355,225.60029 78.772555,242.17589 C 67.510155,252.78779 57.995655,260.83559 51.585055,273.11339 C 45.703955,284.37719 47.344955,287.30749 49.397555,290.30089 C 52.344955,294.59919 59.605855,296.55089 64.710055,299.67589 C 52.626755,312.17589 43.558555,319.17379 28.460055,337.17589 C 16.475265,351.46549 4.3975551,365.50919 2.2100551,372.17589 C -4.1441249,388.84259 4.5892851,396.70319 10.960055,398.73839 C 20.872255,402.10459 31.728955,402.09969 41.897555,395.92589 C 63.812255,382.62049 68.218355,377.61079 79.397555,368.42589 C 90.405855,359.38159 101.89756,350.30089 113.14756,342.17589 C 117.73086,338.00919 122.31426,333.84259 126.89756,329.67589 C 121.89756,340.92589 118.47776,351.24829 111.27256,364.05089 C 105.87356,373.64409 90.126755,394.15509 96.897555,395.30089 C 98.668355,395.71759 118.66556,376.26269 129.39756,367.80089 C 140.33216,359.17939 156.06426,347.17589 162.52256,341.55089 C 170.43926,336.75919 174.60586,332.90509 180.02256,332.48839 C 177.52256,342.07169 174.08506,354.78009 169.39756,360.92589 C 163.98086,372.80089 154.81426,380.61339 156.89756,383.42589 C 159.71006,389.88419 182.21006,366.34259 190.96006,356.23839 C 201.89756,345.09259 209.71006,333.63419 223.14756,325.92589 C 229.60586,330.50919 206.01516,373.94269 218.14756,380.92589 C 223.93176,384.25519 233.43716,384.02569 240.64756,378.42589 C 252.53636,369.67799 262.31426,362.59259 271.89756,354.67589 C 274.81426,352.59259 279.91836,347.38419 280.64756,348.42589 C 282.31426,349.98839 268.00636,359.81789 263.14756,374.67589 C 260.81886,381.79699 268.87876,385.78009 274.39756,384.05089 C 284.50376,380.88429 307.41836,363.42589 304.39756,360.92589 C 302.93926,359.57169 294.60586,364.15509 291.58506,362.80089 C 291.16836,354.15509 303.33206,340.63129 313.14756,331.23839 C 325.10286,319.79799 336.89756,315.61339 356.58506,299.36339 C 354.71006,294.78009 318.46006,313.32169 302.52256,326.86339 C 290.43926,336.65509 282.41836,342.07169 275.64756,347.17589 C 259.50176,359.15509 253.66836,360.82169 246.89756,358.42589 C 239.18926,357.48839 240.90896,349.64689 244.39756,337.48839 C 247.99236,324.95939 259.29336,309.67589 251.27256,305.61339 C 247.00176,303.63419 235.85586,306.65509 232.52256,309.36339 C 221.68926,315.19669 211.79336,323.53009 205.02256,328.73839 C 203.98086,327.07169 206.37676,310.40509 203.77256,301.23839 C 201.37676,297.80089 194.91836,299.98839 181.58506,311.55089 C 168.66836,321.96759 156.06426,330.82169 133.14756,354.67589 C 125.12676,354.57169 160.23086,309.78009 156.89756,304.67589 C 154.60596,299.57179 142.81246,307.04829 124.48086,320.42199 C 106.14916,333.79559 60.707955,368.18139 52.835055,371.55089 C 44.443855,375.80829 37.031755,376.53819 32.522555,373.73839 C 26.651755,369.46809 27.285655,364.68199 28.484455,358.86429 C 29.683255,353.04669 32.696755,348.69739 35.335055,345.30089 C 41.675255,336.51349 64.215455,314.01239 74.085055,307.17589 C 84.678455,300.50879 100.14886,292.77679 113.46006,283.73839 C 121.74956,278.73479 143.87676,258.42589 140.64756,256.55089 C 139.71006,253.84259 115.33506,267.69669 106.58506,269.98839 C 98.564255,272.59259 79.809155,277.48999 75.960055,264.05089 C 73.178755,254.96509 100.12676,234.78009 116.27256,223.42589 C 139.08506,208.63419 165.02256,197.59259 178.14756,198.42589 C 183.04336,198.73839 174.18926,209.67589 170.02256,212.80089 C 166.48086,216.13429 154.38416,224.02129 151.81946,226.39469 C 150.38716,228.00919 152.00176,228.52999 152.83506,229.05089 z "
     style="font-size:12px;fill:#1951c3;fill-rule:evenodd;stroke-width:1"
     id="path607" /><path
     d="M 240.64756,220.30089 C 215.23086,256.34259 190.95426,294.39209 166.27256,330.92589 C 148.87086,356.68379 124.69676,381.27099 113.14756,409.67589 C 109.28006,419.18769 103.14756,438.00919 106.27256,441.55089 C 127.52256,405.92589 153.37656,371.54699 178.14756,337.80089 C 196.50146,312.79699 214.23346,287.08029 230.64756,260.92589 C 233.19176,256.87199 245.43926,226.75919 240.64756,220.30089 z "
     style="font-size:12px;fill-rule:evenodd;stroke-width:1"
     id="path627" /><path
     d="M 249.39756,211.55089 C 223.98086,247.59259 199.70426,285.64209 175.02256,322.17589 C 157.62086,347.93379 133.44676,372.52099 121.89756,400.92589 C 118.03006,410.43769 111.89756,429.25919 115.02256,432.80089 C 136.27256,397.17589 162.12656,362.79699 186.89756,329.05089 C 205.25146,304.04699 222.98346,278.33029 239.39756,252.17589 C 241.94176,248.12199 254.18926,218.00919 249.39756,211.55089 z "
     style="font-size:12px;fill:#b51a16;fill-rule:evenodd;stroke-width:1"
     id="path611" /><path
     d="M 365.02256,199.05089 C 347.73086,229.46759 332.79986,261.60329 309.39756,288.42589 C 305.71636,292.64509 298.45156,281.74389 293.40646,278.86779 C 288.51186,276.07759 279.77666,290.21359 266.81946,312.17589 C 259.89256,324.08679 255.64756,337.28009 250.02256,349.67589 C 244.81426,362.59259 238.35586,385.50919 241.89756,386.55089 C 246.48086,386.34259 265.94926,325.11229 280.02256,314.67589 C 284.49086,311.36229 288.88276,326.17119 295.64756,324.67589 C 308.67436,321.79619 322.77236,294.78749 333.77256,272.17589 C 345.27236,248.53749 372.73086,203.84259 365.02256,199.05089 z "
     style="font-size:12px;fill-rule:evenodd;stroke-width:1"
     id="path628" /><path
     d="M 373.77256,190.30089 C 356.48086,220.71759 341.54986,252.85329 318.14756,279.67589 C 314.46636,283.89509 307.20156,272.99389 302.15646,270.11779 C 297.26186,267.32759 288.52666,281.46359 275.56946,303.42589 C 268.64256,315.33679 264.39756,328.53009 258.77256,340.92589 C 253.56426,353.84259 247.10586,376.75919 250.64756,377.80089 C 255.23086,377.59259 274.69926,316.36229 288.77256,305.92589 C 293.24086,302.61229 297.63276,317.42119 304.39756,315.92589 C 317.42436,313.04619 331.52236,286.03749 342.52256,263.42589 C 354.02236,239.78749 381.48086,195.09259 373.77256,190.30089 z "
     style="font-size:12px;fill:#b51a16;fill-rule:evenodd;stroke-width:1"
     id="path612" /></svg>